<svg width="400" height="400" viewBox="0 0 400 400" xmlns="http://www.w3.org/2000/svg">
  <rect width="400" height="400" fill="#0a0a1a"/>
  <!-- Outer glow -->
  <path d="M362.60 267.35 L267.35 362.60 L132.65 362.60 L37.40 267.35 L37.40 132.65 L132.65 37.40 L267.35 37.40 L362.60 132.65Z" fill="#0a0a1a" stroke="#c8a84b" stroke-width="8.00" filter="url(#glow)"/>
  <!-- Inner frame -->
  <path d="M362.60 267.35 L267.35 362.60 L132.65 362.60 L37.40 267.35 L37.40 132.65 L132.65 37.40 L267.35 37.40 L362.60 132.65Z" fill="none" stroke="#c8a84b" stroke-width="3.20" opacity="0.4"/>
  <!-- Decorative dots at corners -->
  <circle cx="362.60" cy="267.35" r="4.80" fill="#c8a84b" opacity="0.7"/><circle cx="267.35" cy="362.60" r="4.80" fill="#c8a84b" opacity="0.7"/><circle cx="132.65" cy="362.60" r="4.80" fill="#c8a84b" opacity="0.7"/><circle cx="37.40" cy="267.35" r="4.80" fill="#c8a84b" opacity="0.7"/><circle cx="37.40" cy="132.65" r="4.80" fill="#c8a84b" opacity="0.7"/><circle cx="132.65" cy="37.40" r="4.80" fill="#c8a84b" opacity="0.7"/><circle cx="267.35" cy="37.40" r="4.80" fill="#c8a84b" opacity="0.7"/><circle cx="362.60" cy="132.65" r="4.80" fill="#c8a84b" opacity="0.7"/>
  <!-- Yaos -->
  <rect x="103.20" y="260.40" width="193.60" height="19.20" rx="3" fill="#c8a84b"/><rect x="103.20" y="232.40" width="193.60" height="19.20" rx="3" fill="#c8a84b"/><rect x="103.20" y="204.40" width="193.60" height="19.20" rx="3" fill="#c8a84b"/><rect x="103.20" y="176.40" width="193.60" height="19.20" rx="3" fill="#c8a84b"/><rect x="103.20" y="148.40" width="193.60" height="19.20" rx="3" fill="#c8a84b"/><rect x="103.20" y="120.40" width="193.60" height="19.20" rx="3" fill="#c8a84b"/>
  <!-- Defs -->
  <defs>
    <filter id="glow" x="-20%" y="-20%" width="140%" height="140%">
      <feGaussianBlur stdDeviation="6.00" result="blur"/>
      <feMerge><feMergeNode in="blur"/><feMergeNode in="SourceGraphic"/></feMerge>
    </filter>
  </defs>
</svg>